<?xml version="1.0" encoding="utf-8"?>
<!-- Generator: Adobe Illustrator 22.1.0, SVG Export Plug-In . SVG Version: 6.00 Build 0)  -->
<svg version="1.1" id="Layer_1" xmlns="http://www.w3.org/2000/svg" xmlns:xlink="http://www.w3.org/1999/xlink" x="0px" y="0px"
	 viewBox="0 0 464 288" style="enable-background:new 0 0 464 288;" xml:space="preserve">
<style type="text/css">
	.st0{fill:#D4FEFF;}
	.st1{fill:#D4FEFF;stroke:#000000;stroke-width:0.75;stroke-miterlimit:10;}
	.st2{fill:#D4FEFF;stroke:#000000;stroke-width:0.5;stroke-miterlimit:10;}
	.st3{fill:#FFFFFF;stroke:#000000;stroke-width:0.5;stroke-miterlimit:10;}
	.st4{fill:none;stroke:#FFFFFF;stroke-width:0.75;stroke-miterlimit:10;}
	.st5{fill:#4D4D4D;}
	.st6{fill:#49C1D6;stroke:#000000;stroke-width:0.5;stroke-miterlimit:10;}
	.st7{fill:none;stroke:#000000;stroke-width:0.5;stroke-miterlimit:10;}
	.st8{fill:#FFFEDF;stroke:#000000;stroke-width:0.5;stroke-miterlimit:10;}
	.st9{fill:#333333;}
	.st10{opacity:9.000000e-02;}
	.st11{fill:none;stroke:#67B1FF;stroke-width:0.25;stroke-miterlimit:10;}
</style>
<g id="name_1_">
	<g>
		<polygon class="st0" points="15.6,268.5 27.4,172.5 203.4,171.5 189.6,269.5 		"/>
		<path d="M202.8,172l-13.7,97l-173-1l11.8-95L202.8,172 M204,171l-177,1l-12,97l175,1L204,171L204,171z"/>
	</g>
	<g id="flight">
		<polygon class="st1" points="428,25 329,64 356.5,91.5 		"/>
		<polygon class="st2" points="428,25 329,64 331.5,34.5 		"/>
		<polygon class="st3" points="328.7,64.1 321.5,83.5 340.5,75.5 		"/>
	</g>
	<path class="st4" d="M208,228c11.3-10,35-28.2,42.5-44.8c6.5-14.2,10.3-53.3,27.4-63.9c8.3-5.2,15.9-3.9,17-3.3
		c3.3,1.8,11.8,5.2,4.7,12.5c-5.7,5.8-39.9,6.1-32.1-10c2.8-5.8,30.7-24.9,32.1-24.9"/>
	<g id="name">
		<path class="st5" d="M62.2,192.2c0.3,0.1,0.6,0.3,0.8,0.6c0.2,0.2,0.2,0.5,0.2,0.7c0,0.3-0.1,0.5-0.3,0.7
			c-0.2,0.2-0.5,0.3-0.9,0.4l-4.5-0.2l-0.5,14.4c0,0.5-0.2,0.8-0.4,1c-0.3,0.2-0.5,0.3-0.8,0.3c-0.3,0-0.5-0.1-0.7-0.3
			c-0.2-0.2-0.4-0.5-0.4-1l0.6-14.5l-4.6-0.2c-0.4-0.1-0.7-0.3-0.9-0.5c-0.2-0.3-0.3-0.5-0.2-0.8c0-0.3,0.2-0.6,0.4-0.8
			c0.2-0.2,0.6-0.3,1-0.3c0.2,0,0.6,0,1.2,0c0.6,0,1.3,0.1,2.1,0.1c0.8,0,1.6,0.1,2.5,0.1c0.9,0,1.7,0.1,2.5,0.1
			c0.8,0,1.5,0.1,2.1,0.1C61.6,192.2,62,192.2,62.2,192.2z"/>
		<path class="st5" d="M64.7,192.9c0-0.4,0.2-0.8,0.5-1.1c0.3-0.3,0.6-0.4,1-0.4c0.4,0,0.7,0.2,1,0.5c0.3,0.3,0.4,0.7,0.4,1.1
			c0,0.4-0.2,0.8-0.5,1.1c-0.3,0.3-0.6,0.4-1,0.4c-0.4,0-0.7-0.2-1-0.5C64.8,193.7,64.7,193.3,64.7,192.9z M66.7,209.1
			c0,0.5-0.2,0.8-0.4,1c-0.3,0.2-0.5,0.3-0.8,0.3c-0.3,0-0.5-0.1-0.7-0.3c-0.2-0.2-0.4-0.5-0.4-1c0.1-1.9,0.1-3.7,0.2-5.7
			c0.1-1.9,0.1-3.8,0.2-5.7c0.1-0.4,0.3-0.7,0.5-0.9c0.2-0.2,0.5-0.3,0.7-0.3c0.3,0,0.5,0.1,0.7,0.3c0.2,0.2,0.4,0.5,0.4,0.8
			c-0.1,1.9-0.1,3.7-0.2,5.7C66.8,205.3,66.8,207.2,66.7,209.1z"/>
		<path class="st5" d="M80.5,210.7c-0.3,0.2-0.5,0.3-0.8,0.3c-0.3,0-0.5-0.1-0.7-0.3c-0.2-0.2-0.4-0.5-0.4-1c0-0.9,0.1-1.8,0.1-2.7
			c0-0.9,0.1-1.8,0.1-2.7c0-0.6,0.1-1.3,0.1-1.9c0-0.6,0-1.3-0.1-2c-0.1-0.3-0.3-0.5-0.5-0.6c-0.2-0.1-0.4-0.1-0.7-0.1
			c-0.7,0-1.3,0.1-2,0.4c-0.7,0.3-1.2,0.7-1.6,1.3c-0.2,0.3-0.4,0.6-0.5,0.8c-0.1,0.2-0.2,0.5-0.3,1c0,1-0.1,2-0.1,3
			c0,1-0.1,2-0.1,3c0,0.5-0.2,0.8-0.4,1c-0.3,0.2-0.5,0.3-0.8,0.3c-0.3,0-0.5-0.1-0.7-0.3c-0.2-0.2-0.4-0.5-0.4-1
			c0-0.9,0.1-1.9,0.1-2.7s0.1-1.8,0.1-2.6c0-0.9,0.1-1.7,0.1-2.6c0-0.9,0.1-1.8,0.1-2.8c0.1-0.4,0.3-0.7,0.5-0.9
			c0.2-0.2,0.5-0.3,0.7-0.3c0.3,0,0.5,0.1,0.7,0.3c0.2,0.2,0.4,0.5,0.4,0.8l0,0.2c0.6-0.5,1.2-0.8,2-1.1c0.7-0.3,1.4-0.4,2.2-0.3
			c0.7,0,1.4,0.2,2,0.6c0.6,0.4,1.1,0.9,1.5,1.7c0.1,0.3,0.2,0.6,0.2,1c0,0.4,0,0.8,0,1.2c0,0.4,0,0.9-0.1,1.3
			c0,0.4-0.1,0.9-0.1,1.3l-0.1,3.5l-0.1,2C80.9,210.2,80.8,210.5,80.5,210.7z"/>
		<path class="st5" d="M84.8,216.6c-0.2-0.3-0.4-0.5-0.4-0.8c0-0.3,0-0.6,0.1-0.8c0.1-0.2,0.3-0.4,0.6-0.5c0.3-0.1,0.6-0.1,1,0.1
			c0.2,0.1,0.5,0.3,0.6,0.4c0.2,0.1,0.3,0.2,0.5,0.3c0.2,0.1,0.3,0.2,0.5,0.2c0.2,0.1,0.4,0.1,0.6,0.2c0.3,0.1,0.7,0.1,1.1,0.2
			s0.8,0,1.2-0.1c0.4-0.1,0.8-0.2,1.1-0.4c0.3-0.2,0.6-0.5,0.8-0.8c0.1-0.2,0.2-0.5,0.3-0.8c0-0.3,0.1-0.6,0.1-0.9l0.1-1.9
			c-0.3,0.1-0.6,0.3-0.9,0.3c-0.3,0.1-0.6,0.2-1,0.3c-0.5,0.1-0.9,0.1-1.4,0.1c-0.5,0-0.9,0-1.4-0.2c-1-0.2-1.8-0.7-2.5-1.3
			c-0.7-0.7-1.1-1.5-1.4-2.4c-0.3-0.9-0.4-1.9-0.4-2.9c0-1,0.2-1.9,0.6-2.8c0.3-0.7,0.7-1.3,1.3-1.9c0.5-0.6,1.2-1,1.8-1.3
			c0.7-0.3,1.4-0.5,2.1-0.5c0.8,0,1.5,0.1,2.2,0.5c0.6,0.3,1.1,0.6,1.6,1c0.1-0.3,0.3-0.5,0.5-0.6c0.2-0.1,0.4-0.2,0.7-0.1
			c0.2,0,0.4,0.2,0.6,0.3s0.3,0.4,0.4,0.8l-0.5,12.6c0,1.1-0.2,2-0.6,2.7c-0.3,0.7-1,1.4-1.9,2c-0.4,0.2-0.8,0.4-1.2,0.6
			c-0.4,0.2-0.9,0.3-1.3,0.3c-0.9,0.1-1.8,0-2.7-0.2c-0.6-0.2-1.1-0.4-1.5-0.6C85.9,217.2,85.4,216.9,84.8,216.6z M93.1,208.1
			c0.1,0,0.1-0.1,0.2-0.1l0.2-5.3c0,0,0,0,0,0c-0.4-0.4-0.8-0.8-1.3-1.1c-0.5-0.4-1-0.6-1.5-0.8c-0.2,0-0.5,0-0.7,0
			c-0.2,0-0.5,0-0.7,0c-0.2,0.1-0.3,0.1-0.5,0.2c-0.2,0.1-0.3,0.1-0.5,0.2c-1,1-1.6,2-1.7,3c-0.1,1,0.1,2.2,0.6,3.5
			c0.1,0.1,0.2,0.2,0.3,0.4s0.2,0.2,0.3,0.4C89.6,209.5,91.3,209.4,93.1,208.1z"/>
		<path class="st5" d="M113.5,199.5c0.2-0.3,0.4-0.5,0.7-0.6s0.5-0.1,0.8,0c0.2,0.1,0.4,0.2,0.6,0.5c0.2,0.3,0.2,0.6,0.2,0.9
			c-0.6,1.9-1.3,3.8-2,5.7s-1.5,3.7-2.4,5.5c-0.3,0.3-0.6,0.5-1,0.5c-0.4,0-0.7-0.2-1-0.5c-0.5-1.1-1-2.3-1.4-3.4s-0.8-2.3-1.2-3.5
			c-0.1-0.2-0.1-0.3-0.2-0.5c-0.1-0.2-0.1-0.3-0.2-0.5c-0.3,0.6-0.5,1.2-0.8,1.8c-0.3,0.6-0.5,1.2-0.8,1.8c-0.3,0.6-0.5,1.2-0.8,1.9
			c-0.3,0.6-0.6,1.3-0.9,2.1c-0.4,0.4-0.8,0.6-1.2,0.5c-0.4-0.1-0.7-0.4-1-0.9c-0.4-1.1-0.8-2.2-1-3.3c-0.3-1.1-0.6-2.2-0.9-3.4
			c-0.2-0.8-0.4-1.5-0.5-2.3c-0.2-0.7-0.3-1.5-0.4-2.2c0-0.4,0-0.8,0.2-1c0.2-0.3,0.4-0.4,0.7-0.5s0.5,0,0.8,0.2
			c0.3,0.2,0.5,0.5,0.6,0.9c0.2,1.3,0.4,2.7,0.7,4c0.3,1.3,0.7,2.7,1,4c0.3-0.6,0.5-1.2,0.8-1.8c0.2-0.6,0.5-1.1,0.7-1.7
			c0.2-0.6,0.5-1.2,0.8-1.8c0.3-0.6,0.6-1.4,0.9-2.2c0.2-0.3,0.4-0.5,0.6-0.6c0.2-0.1,0.5-0.1,0.7-0.1c0.2,0,0.4,0.1,0.6,0.3
			c0.2,0.2,0.3,0.4,0.4,0.7c0.1,0.6,0.3,1.3,0.6,1.9c0.2,0.6,0.4,1.2,0.6,1.8c0.2,0.7,0.5,1.4,0.7,2c0.2,0.7,0.5,1.3,0.7,2
			c0.6-1.4,1.1-2.7,1.6-4.1C112.6,202.3,113,200.9,113.5,199.5z"/>
		<path class="st5" d="M127.2,209c0.4-0.1,0.8-0.1,1,0c0.3,0.1,0.5,0.3,0.6,0.6c0.1,0.3,0.1,0.5,0,0.9c-0.1,0.3-0.3,0.6-0.7,0.8
			c-0.7,0.3-1.4,0.7-2.1,1c-0.8,0.3-1.5,0.5-2.3,0.6c-0.8,0.1-1.5,0.1-2.2-0.1c-0.7-0.2-1.4-0.5-2.1-1c-0.8-0.6-1.4-1.4-1.8-2.4
			c-0.4-1-0.6-2-0.5-3.1c0-1.1,0.3-2.1,0.7-3c0.4-1,1.1-1.7,2-2.3c0.9-0.6,1.9-1,3-1.3c1.1-0.3,2.1-0.3,3.2,0c0.5,0.1,1,0.4,1.4,0.8
			c0.4,0.4,0.7,0.9,1,1.4c0.2,0.5,0.4,1,0.4,1.6c0,0.6-0.2,1.1-0.5,1.6c-0.4,0.5-0.8,1-1.5,1.3c-0.6,0.4-1.3,0.7-2.1,0.9
			c-0.7,0.2-1.5,0.4-2.2,0.6c-0.7,0.1-1.4,0.3-1.9,0.4c-0.2,0-0.5,0.1-0.7,0c0.3,0.6,0.7,1.2,1.2,1.6c0.6,0.4,1.3,0.6,2.1,0.6
			c0.7,0,1.4-0.2,2.1-0.5C125.9,209.6,126.6,209.3,127.2,209z M121.7,202.5c-0.7,0.3-1.3,0.9-1.7,1.5c-0.4,0.7-0.6,1.4-0.6,2.1
			c0.1-0.1,0.3-0.2,0.4-0.2c0.4-0.1,0.7-0.2,1.1-0.3c0.4-0.1,0.7-0.2,1.1-0.3c0.2,0,0.6-0.1,1-0.2c0.4-0.1,0.8-0.2,1.3-0.4
			c0.4-0.1,0.8-0.3,1.2-0.5c0.4-0.2,0.6-0.4,0.7-0.7c0.1-0.6-0.1-1.1-0.4-1.3c-0.3-0.3-0.8-0.4-1.2-0.4c-0.5,0-1,0-1.5,0.2
			C122.5,202.2,122.1,202.3,121.7,202.5z"/>
		<path class="st5" d="M131.8,195.6c0-0.4,0.2-0.8,0.5-1.1c0.3-0.3,0.6-0.4,1-0.4c0.4,0,0.7,0.2,1,0.5c0.3,0.3,0.4,0.7,0.4,1.1
			c0,0.4-0.2,0.8-0.5,1.1c-0.3,0.3-0.6,0.4-1,0.4c-0.4,0-0.7-0.2-1-0.5C131.9,196.4,131.8,196,131.8,195.6z M133.8,211.8
			c0,0.5-0.2,0.8-0.4,1c-0.3,0.2-0.5,0.3-0.8,0.3c-0.3,0-0.5-0.1-0.7-0.3c-0.2-0.2-0.4-0.5-0.4-1c0.1-1.9,0.1-3.7,0.2-5.7
			c0.1-1.9,0.1-3.8,0.2-5.7c0.1-0.4,0.3-0.7,0.5-0.9c0.2-0.2,0.5-0.3,0.7-0.3c0.3,0,0.5,0.1,0.7,0.3c0.2,0.2,0.4,0.5,0.4,0.8
			c-0.1,1.9-0.1,3.7-0.2,5.7C133.9,208,133.9,209.9,133.8,211.8z"/>
		<path class="st5" d="M158,211.3c0.4,0.1,0.6,0.3,0.8,0.6c0.2,0.2,0.2,0.5,0.2,0.7c0,0.2-0.1,0.5-0.3,0.7c-0.2,0.2-0.5,0.4-0.9,0.4
			c-1.5,0-3-0.1-4.5-0.1c-1.5,0-2.9-0.1-4.4-0.1c-0.8-0.1-1.2-0.5-1.2-1.3c0.1-2.6,0.2-5.2,0.3-7.8c0.1-2.6,0.2-5.2,0.3-7.8
			c0.1-0.4,0.3-0.7,0.5-0.8c0.2-0.2,0.5-0.3,0.7-0.3c0.2,0,0.5,0.1,0.7,0.3c0.2,0.2,0.4,0.5,0.5,0.8c-0.1,2.4-0.2,4.9-0.3,7.2
			c-0.1,2.4-0.2,4.8-0.3,7.2c1.3,0,2.6,0,3.9,0.1C155.3,211.3,156.7,211.3,158,211.3z"/>
		<path class="st5" d="M162.1,196.8c0-0.4,0.2-0.8,0.5-1.1c0.3-0.3,0.6-0.4,1-0.4c0.4,0,0.7,0.2,1,0.5c0.3,0.3,0.4,0.7,0.4,1.1
			c0,0.4-0.2,0.8-0.5,1.1c-0.3,0.3-0.6,0.4-1,0.4c-0.4,0-0.7-0.2-1-0.5C162.2,197.6,162.1,197.2,162.1,196.8z M164.1,213
			c0,0.5-0.2,0.8-0.4,1c-0.3,0.2-0.5,0.3-0.8,0.3c-0.3,0-0.5-0.1-0.7-0.3c-0.2-0.2-0.4-0.5-0.4-1c0.1-1.9,0.1-3.7,0.2-5.7
			c0.1-1.9,0.1-3.8,0.2-5.7c0.1-0.4,0.3-0.7,0.5-0.9c0.2-0.2,0.5-0.3,0.7-0.3c0.3,0,0.5,0.1,0.7,0.3c0.2,0.2,0.4,0.5,0.4,0.8
			c-0.1,1.9-0.1,3.7-0.2,5.7C164.2,209.2,164.2,211.1,164.1,213z"/>
	</g>
	<g id="pen">
		<path class="st5" d="M38,237.7c-0.7,0.5-0.2,1.5,0,1.7c0.4,0.4,6.7,1.7,8.6,1.9c7.9,0.9,25.3,2.1,56.6,5.9
			c5.3,0.6,5.2,0.8,7.1,1.1c2.5,0.3,6.6,1,12,1.3c0.7,0,6,0.8,6.3,0.3c0.6-1.1-1.2-1.1-2.4-1.1c-1.7,0-9.9-0.5-15.9-1.3
			c-2.4-0.3-4.8-0.6-7.2-1c-8.3-1.5-17.4-2.5-36.2-5.3c-0.7-0.1-2.7-0.4-5.4-0.8c-1.1-0.2-2.3-0.3-3.7-0.5
			C52.5,239.1,39.1,236.8,38,237.7z"/>
		<polygon class="st6" points="40.3,221 36,223.8 36,227.8 38.4,232.9 112.5,248.1 129,247 114.9,237.4 		"/>
		<line class="st7" x1="36" y1="227.8" x2="111.6" y2="244.5"/>
		<line class="st7" x1="36" y1="223.8" x2="112.8" y2="240.5"/>
		<polygon class="st8" points="110,239.7 108.8,243.6 112.5,248.1 112.5,248.1 129,247 114.9,237.4 		"/>
		<path class="st9" d="M122.9,243c-0.3,0.3-0.6,0.5-0.8,0.8c-0.1,0.1-0.3,0.2-0.4,0.3c0,0-0.6,0.6-0.6,1.2c0,0.5,0.6,1.6,0.6,1.6
			c0,0,0,0,0.6,0.6l6.7-0.6l-5.5-4H122.9z"/>
		<g class="st10">
			<g>
				<path d="M40.3,223.9c12.3,2.8,24.5,5.6,36.8,8.3c11.1,2.4,22.7,6.3,34.1,6.8c1.9,0.1,1.9-2.9,0-3c-6.1-0.3-12.3-2.2-18.3-3.5
					c-5.5-1.2-11.1-2.4-16.6-3.6c-11.7-2.6-23.4-5.3-35.1-7.9C39.2,220.6,38.4,223.5,40.3,223.9L40.3,223.9z"/>
			</g>
		</g>
		<g class="st10">
			<g>
				<path d="M38.9,233.1c23.8,5,47.6,10,71.4,15c1.9,0.4,2.7-2.5,0.8-2.9c-23.8-5-47.6-10-71.4-15C37.8,229.8,37,232.7,38.9,233.1
					L38.9,233.1z"/>
			</g>
		</g>
		<line class="st11" x1="36.3" y1="225.8" x2="109.1" y2="242.2"/>
	</g>
</g>
</svg>
