<?xml version="1.0" encoding="utf-8"?>
<!-- Generator: Adobe Illustrator 22.1.0, SVG Export Plug-In . SVG Version: 6.00 Build 0)  -->
<svg version="1.1" id="Layer_1" xmlns="http://www.w3.org/2000/svg" xmlns:xlink="http://www.w3.org/1999/xlink" x="0px" y="0px"
	 viewBox="0 0 267 233" style="enable-background:new 0 0 267 233;" xml:space="preserve">
<style type="text/css">
	.st0{fill:#FBB03B;stroke:#000000;stroke-width:0.5;stroke-miterlimit:10;}
	.st1{fill:#29ABE2;stroke:#000000;stroke-width:0.5;stroke-miterlimit:10;}
	.st2{fill:#00A99D;}
	.st3{fill:none;stroke:#000000;stroke-width:0.5;stroke-miterlimit:10;}
	.st4{fill:#FBB03B;stroke:#FBB03B;stroke-miterlimit:10;}
	.st5{fill:#00A99D;stroke:#00A99D;stroke-miterlimit:10;}
	.st6{fill:#29ABE2;stroke:#29ABE2;stroke-miterlimit:10;}
	.st7{fill:#FFFFFF;}
	.st8{fill:#FBB03B;}
	.st9{fill:#29ABE2;}
</style>
<symbol  id="New_Symbol" viewBox="-100.1 -101.3 199 202.5">
	<path class="st0" d="M-2.2,16c-3.1,8-51.3,75.4-51.3,84.8c0,3.2,20.7-30.3,22.5-25.7C-28.5,81.4-11,55.8-11,57.7
		c0,10.7,18.4-20,18.4-13.4c0,4,17.2-6.7,26-9.3c5.3-1.6,17.3,3,17.3,3c4.6,0,18.6,5.1,23,2.7c6.3-3.5-13.8,22.7,0,6.7
		c2.8-3.2,7.7-2.7,12.3-6.7c0,0,2.8-2.1,4-5c0.3-0.8,0.5-1.6,0.5-1.6c0.1-0.8,0.1-1.3,0.1-1.4c0-3.9-9.2-2.7-13.8-4
		C69.6,26.6,22.1-5.5,13.9-3.4C-0.9,0.5-10.1-20-22.8-16.8c-15,3.9-10-0.7-16.8,0c-5.5,0.6-6.1,4-26,4c-15.3,0-42.9-6.7-29.2-3.4
		c1.8,0.4,20,6.1,26.1,7.4c5.4,1.2,42.9,5.3,44.4,6.7c4.6,4,7.1,3.7,10.1,6.7C-7.2,9.7-0.2,10.7-2.2,16z"/>
	<path class="st1" d="M-28.9-19.4c4.3,3-1.2-1.8,18.4,8c4.3,2.2,23,19.3,41.3,12c16-6.3,13.5,15.3,26,21.4
		c13.8,6.7,31.8,5.3,39.8,6.7c7.7,1.3-8.9-3.2-16.8-6.7C73.7,19.3,55.9,6.3,55.3,2.6c-0.5-3.1,3.1-20-3.1-17.4
		c-3.1,1.3,10-27.5,6.1-26.7c-5.4,1.2-1.5-8-1.5-8c0-2.7,5.4-20.7,0-16c-4.6,4,9.5-38.2,7.6-35.4c-12.7,18.6-11.3,30.2-32,66.8
		c-2.7,4.8-6.7,10.8-13.2,14C14.6-17.8,8.1-19-7.2-20.3c-4.7-0.4-18.4,0.3-27.8-8.4c-22.2-20.6-41.2-17.6-43.2-15.6
		c-0.1,0.1,13,2,21,4c3,1,5,3,7.2,5.5C-43.3-27.5-35.9-18.4-28.9-19.4z"/>
	<path class="st2" d="M-70.3-23.4c-4.5-0.2-6.4-0.4-6.4-0.6c0-0.6,21.4-1.4,44.7,1.9c1.4,0.2,12.1,5.6,15.3,6.7
		c7.7,2.7,29.4-1.6,36.8,1.3c10.2,4.1,23.1,8.7,26,9.3c6.1,1.3,6.3,9,9.2,10.7c7.5,4.4-1.5,6.9,3.1,10.7c0.9,0.8,19.9,7.3,24.5,9.3
		c6.1,2.7,10.7,1.3,15.3,2.7c0,0-7.2,5.1-7.7,5.3c-2.6,1.6-7.6-1.2-10.7-1.3c-3.5-0.2-11.9-1.2-12.3-1.3c-10-2.8-19.8,5-27.6-1.3
		c-10.3-8.4-4.3-7.6-13.8-14.7C20.5,11,7.9,16,3.2,14C0.1,12.6-1.4,5.9-6-4.7c0,0-14.5,1.2-19.9-2.7c-9.2-6.7-13.8-10.7-18.4-12
		C-49.8-21-65.5-23.2-70.3-23.4z"/>
	<path class="st3" d="M-37.9-22.5c-2,0-12-2-24-2c-7.5,0-9,0-13,0c-0.4,0-1.6,0.2-1.6,0.3c0,0.8,12.1,1.5,20.6,2.7
		c4.9,0.7,13,2,17,5"/>
	<path class="st0" d="M90.1,34.5c2.3-1.3,5.7-4.7,8-6"/>
	<path class="st4" d="M-44.9-5.5"/>
	<path class="st4" d="M-60.9-7.5"/>
	<path class="st4" d="M-69.9-8.5"/>
	<path class="st4" d="M-83.9-12.5"/>
	<path class="st4" d="M-69.7-11.5"/>
	<path class="st4" d="M-100.1-17.5"/>
	<path class="st4" d="M-61.9-20.5"/>
	<path class="st4" d="M-70.9-21.5"/>
	<path class="st4" d="M-42.9-14.5c-5,0-3.9,1.7-23.8,1.7c-15.3,0-42.9-6.7-29.2-3.4c1.8,0.4,20,6.1,26.1,7.4
		c5.4,1.2,29.9,3.2,31.9,3.2C-33.7-5.5-36-14.5-42.9-14.5z"/>
	<path class="st5" d="M-58.3-21.4c-4.5,0.1-18.4-2.4-18.4-2.6c0-0.6,10.4-0.3,33.8,1.5c1.4,0.1-0.3,2.9-5,2
		C-52.9-21.5-52.9-21.5-58.3-21.4z"/>
	<path class="st6" d="M-46.9-34.5c4.3,3,0-2-3-4c-10.4-6.8-23.4-7.8-28.4-5.8c-0.1,0,14,0,21,3C-53.3-39.3-53.3-39.3-46.9-34.5z"/>
</symbol>
<g id="pic">
	<g>
		<polygon class="st7" points="43.1,142.4 100.1,131.6 98.5,181 41.5,191.9 		"/>
		<path d="M99.6,132.2L98,180.6l-56,10.6l1.6-48.4L99.6,132.2 M100.6,131l-58,11L41,192.5l58-11L100.6,131L100.6,131z"/>
	</g>
	<g>
		<polygon class="st7" points="29.5,119 86.5,108.2 99.9,131.6 42.8,142.5 		"/>
		<path d="M86.3,108.8l12.8,22.5l-56,10.6l-12.8-22.5L86.3,108.8 M86.8,107.6l-58.1,11L42.6,143l58.1-11L86.8,107.6L86.8,107.6z"/>
	</g>
	<g>
		
			<ellipse transform="matrix(0.1038 -0.9946 0.9946 0.1038 -94.0683 211.8752)" class="st8" cx="70.5" cy="158.1" rx="7.2" ry="6.3"/>
	</g>
	<polygon class="st2" points="42,177.2 42.4,165.2 54.7,155 75.5,160.3 86,149.5 99.3,157.1 99,166.4 	"/>
	<polygon class="st9" points="98.5,180.7 41.3,191.5 41.8,176.7 99,165.8 	"/>
	
		<use xlink:href="#New_Symbol"  width="199" height="202.5" id="XMLID_1_" x="-100.1" y="-101.3" transform="matrix(0.9438 -0.2851 -0.2795 -0.9251 158.2225 110.7819)" style="overflow:visible;"/>
</g>
</svg>
