<?xml version="1.0" encoding="utf-8"?>
<!-- Generator: Adobe Illustrator 22.1.0, SVG Export Plug-In . SVG Version: 6.00 Build 0)  -->
<svg version="1.1" id="Layer_1" xmlns="http://www.w3.org/2000/svg" xmlns:xlink="http://www.w3.org/1999/xlink" x="0px" y="0px"
	 viewBox="0 0 225 196" style="enable-background:new 0 0 225 196;" xml:space="preserve">
<style type="text/css">
	.st0{fill:#FCFFD4;}
	.st1{fill:#009FC9;stroke:#007FB4;stroke-miterlimit:10;}
	.st2{font-family:'BradleyHandITCTT-Bold';}
	.st3{font-size:29.1871px;}
	.st4{fill:#0083E9;}
	.st5{font-size:18.5698px;}
	.st6{fill:#1F8AFF;}
	.st7{font-size:16.7896px;}
	.st8{fill:#2A96FF;}
	.st9{font-size:13.9466px;}
	.st10{fill:#35B2FF;}
	.st11{font-size:18px;}
	.st12{fill:#00749F;}
	.st13{fill:#D4FFFC;stroke:#000000;stroke-width:0.5;stroke-miterlimit:10;}

	#notes {
		transform-origin: 191px 20px;
  		<!--animation: wave 6s alternate forwards;-->
   		animation-timing-function: ease-in-out;
		}


	@-webkit-keyframes wave {
		0% {
				transform: rotate(0deg);
		}
		10% {
						transform: rotate(-30deg);
		}
		30% {
						transform: rotate(-20deg);
		}
		50%,100% {
						transform: rotate(-30deg);
		}


	}
</style>
<g id="notes">
	<g>
		<polygon class="st0" points="30.8,34.3 202.9,8.7 201.6,167 31.1,189.1 		"/>
		<path d="M202.4,9.3l-1.3,157.2l-169.4,22L31.3,34.7L202.4,9.3 M203.4,8.1L30.3,33.9l0.4,155.8l171.4-22.3L203.4,8.1L203.4,8.1z"/>
	</g>
	<text transform="matrix(0.7754 -5.193350e-02 6.682397e-02 0.9978 123.3383 74.3439)" class="st1 st2 st5">JavaScript</text>
	<text transform="matrix(0.6177 -0.6509 0.8976 0.4407 51.2956 110.5999)" class="st4 st2 st5">HTML5</text>
	<text transform="matrix(0.1875 -0.6406 0.9597 0.2809 167.9753 115.1716)" class="st6 st2 st7">CSS</text>
	<text transform="matrix(0.8875 -0.2406 0.9597 1.2809 47.9753 55.1716)" class="st6 st2 st7">Angular</text>
	<text transform="matrix(1.0407 -0.1079 0.1031 0.9947 84.5962 110.0614)" class="st8 st2 st5">Vue.js</text>
	<text transform="matrix(0.7701 0 0.289 0.9573 77.173 137.0778)" class="st10 st2 st11">Webpack</text>
	<text transform="matrix(0.8701 -0.0929 0.289 0.9573 57.173 170.0778)" class="st4 st2 st5">React Native</text>
	<text transform="matrix(0.8875 -0.2406 0.9597 1.2809 157.9753 149.1716)" class="st6 st2 st7">React</text>
	<text transform="matrix(0.9842 -0.2411 0.238 0.9713 120.8053 49.4321)" class="st12 st2 st11">Node.js</text>
	<circle class="st13" cx="191.5" cy="20.5" r="4"/>
</g>
</svg>
